<svg width="14" height="14" viewBox="0 0 14 14" fill="none" xmlns="http://www.w3.org/2000/svg">
    <path d="M3.09039 1.71274C5.33664 -0.539014 8.97851 -0.539014 11.2245 1.71274C13.4709 3.96456 12.9479 7.61556 10.7016 9.86732L7.15757 13.9445L3.61342 9.86732C1.36698 7.61556 0.844167 3.96454 3.09037 1.71274H3.09039ZM7.15753 12.4619L9.96238 9.12613C11.8001 7.28377 12.323 4.2964 10.4853 2.4541C8.64731 0.611748 5.6677 0.611748 3.82987 2.4541C1.9921 4.29641 2.51503 7.28373 4.35286 9.12613L7.15753 12.4619ZM7.15753 2.64482C5.71357 2.64482 4.54303 3.8184 4.54303 5.26586C4.54303 6.71327 5.71357 7.88684 7.15753 7.88684C8.60171 7.88684 9.77198 6.71326 9.77198 5.26586C9.77198 3.81844 8.60173 2.64482 7.15753 2.64482ZM7.15753 6.83833C6.29115 6.83833 5.58883 6.13446 5.58883 5.26585C5.58883 4.39723 6.29111 3.69332 7.15753 3.69332C8.02394 3.69332 8.72636 4.39724 8.72636 5.26585C8.72636 6.13445 8.02394 6.83833 7.15753 6.83833Z" fill="black"/>
</svg>
