<svg width="28" height="28" viewBox="0 0 28 28" fill="none" xmlns="http://www.w3.org/2000/svg">
    <path d="M17.9951 20.1138C17.9951 20.8373 17.4284 21.426 16.7321 21.426H3.26097C2.56469 21.426 1.99805 20.8373 1.99805 20.1138V8.74094C1.99805 8.01745 2.56469 7.42871 3.26097 7.42871H16.7321C17.4284 7.42871 17.9951 8.01745 17.9951 8.74094V20.1138V20.1138ZM23.6446 8.60876L19.9947 10.9687V17.8847L23.62 20.2264C23.6589 20.26 23.8702 20.4262 24.1992 20.4262C24.6374 20.4262 24.9937 20.0457 24.9937 19.5779V9.27682C24.9937 8.80897 24.6374 8.42851 24.1992 8.42851C23.8702 8.42851 23.6589 8.59476 23.6446 8.60876Z" fill="white"/>
</svg>
