<svg width="33" height="32" viewBox="0 0 33 32" fill="none" xmlns="http://www.w3.org/2000/svg">
    <rect x="0.5" width="32" height="32" rx="16" fill="#E6E8F0"/>
    <path d="M16.4707 24.7246C15.291 24.7246 14.1465 24.4941 13.0684 24.0371C12.0273 23.5977 11.0938 22.9668 10.291 22.1641C9.48828 21.3613 8.85938 20.4277 8.41797 19.3867C7.96289 18.3086 7.73047 17.1641 7.73047 15.9844C7.73047 14.8047 7.96094 13.6602 8.41797 12.582C8.85742 11.541 9.48828 10.6074 10.291 9.80469C11.0938 9.00195 12.0273 8.37305 13.0684 7.93359C14.1465 7.47852 15.291 7.24609 16.4707 7.24609C17.4336 7.24609 18.3809 7.40234 19.2852 7.70898C19.7949 7.88281 20.0684 8.4375 19.8945 8.94727C19.7559 9.35352 19.377 9.60938 18.9707 9.60938C18.8672 9.60938 18.7598 9.5918 18.6562 9.55664C17.9551 9.31836 17.2188 9.19727 16.4707 9.19727C14.6582 9.19727 12.9551 9.90234 11.6719 11.1855C10.3906 12.4668 9.68359 14.1719 9.68359 15.9844C9.68359 17.7969 10.3887 19.5 11.6719 20.7832C12.9531 22.0645 14.6582 22.7715 16.4707 22.7715C18.2832 22.7715 19.9863 22.0664 21.2695 20.7832C22.5508 19.502 23.2578 17.7969 23.2578 15.9844C23.2578 14.8398 22.9668 13.707 22.418 12.7109C22.1582 12.2383 22.3281 11.6445 22.8008 11.3848C23.2734 11.125 23.8672 11.2949 24.127 11.7676C24.8359 13.0508 25.209 14.5098 25.209 15.9844C25.209 17.1641 24.9785 18.3086 24.5215 19.3867C24.082 20.4277 23.4512 21.3613 22.6484 22.1641C21.8457 22.9668 20.9121 23.5957 19.8711 24.0371C18.7949 24.4922 17.6504 24.7246 16.4707 24.7246Z" fill="#B2B7CA"/>
</svg>
