<svg width="16" height="24" viewBox="0 0 16 24" fill="none" xmlns="http://www.w3.org/2000/svg">
    <path d="M7.99871 0C5.69382 0 3.82473 1.89349 3.82473 4.229V11.6638C3.82473 13.9993 5.69382 15.8928 7.99871 15.8928C10.3035 15.8928 12.1726 13.9993 12.1726 11.6638V4.229C12.1726 1.89349 10.3035 0 7.99871 0ZM0.868915 10.606C0.388509 10.606 0 10.9996 0 11.4872C0 11.5488 0.0052428 11.6076 0.0183368 11.6638H0C0 15.7803 3.0319 19.1737 6.95648 19.6933V21.8842H5.56525C4.98767 21.8842 4.52047 22.3582 4.52047 22.9422C4.52047 23.526 4.98767 24 5.56525 24H10.4348C11.0123 24 11.4795 23.526 11.4795 22.9422C11.4795 22.3582 11.0123 21.8842 10.4348 21.8842H9.04352V19.6933C12.8525 19.1898 15.8136 15.9733 15.9815 12.0175C15.992 11.9612 16 11.9023 16 11.8407C16 11.8192 15.9948 11.8005 15.9948 11.7818C15.9948 11.7416 16 11.7042 16 11.6638H15.9815C15.9001 11.2621 15.5511 10.9595 15.1283 10.9595C14.7083 10.9595 14.3566 11.2621 14.2752 11.6638H14.2569C14.2569 15.1671 11.4533 18.006 7.996 18.006C4.53878 18.006 1.73512 15.1671 1.73512 11.6638H1.71678C1.72732 11.6076 1.73512 11.5488 1.73512 11.4872C1.73783 10.9996 1.34935 10.606 0.868915 10.606Z" fill="white"/>
</svg>
