<svg width="18" height="13" viewBox="0 0 18 13" fill="none" xmlns="http://www.w3.org/2000/svg">
    <path d="M11.194 0C12.0415 0.00342734 12.8553 0.332285 13.4672 0.918621C14.0792 1.50496 14.4425 2.30396 14.4821 3.15055L14.4839 3.2255L15.6844 2.38692C15.9545 2.21171 16.2766 2.13486 16.5967 2.16931C16.9168 2.20376 17.2152 2.3474 17.4418 2.57607L17.5126 2.6522L17.5759 2.73184C17.6942 2.9286 17.7791 3.14352 17.8283 3.37307L17.8535 3.51186V9.83872C17.8532 10.0154 17.8181 10.1902 17.7502 10.3533C17.6823 10.5164 17.583 10.6645 17.4578 10.7892C17.3327 10.9139 17.1842 11.0127 17.0209 11.08C16.8576 11.1473 16.6826 11.1818 16.506 11.1815C16.2659 11.1815 16.0311 11.1194 15.8232 11.0023L15.7219 10.9391L14.4745 10.0923L14.4704 10.1286C14.3721 10.8772 14.0202 11.5696 13.4733 12.0902C12.9265 12.6109 12.2177 12.9284 11.4651 12.9899L11.3281 12.998L11.1934 13.0004H3.43767C2.59017 12.997 1.77637 12.6681 1.16442 12.0818C0.552474 11.4954 0.189145 10.6964 0.14951 9.84985L0.145996 9.72101V3.27879C0.152719 2.43139 0.484676 1.61895 1.07329 1.0093C1.6619 0.399654 2.4622 0.0393871 3.30884 0.00292815L3.43767 0H11.194ZM11.194 1.40135H3.43709C2.95707 1.40221 2.49539 1.58583 2.14589 1.91487C1.7964 2.24392 1.58531 2.6937 1.55554 3.1728L1.55203 3.27938V9.72043C1.55479 10.2005 1.74026 10.6614 2.07073 11.0096C2.40119 11.3578 2.85185 11.5671 3.33109 11.5949L3.43767 11.5985H11.1741C11.6541 11.5976 12.1158 11.414 12.4653 11.0849C12.8148 10.7559 13.0259 10.3061 13.0556 9.82701L13.0597 9.72043L13.0785 9.70052V3.27938C13.0757 2.79943 12.8903 2.33854 12.56 1.99036C12.2296 1.64218 11.7791 1.43283 11.3 1.40486L11.1934 1.40135H11.194ZM16.3889 3.61961L14.4663 4.92785L14.4412 8.34953L16.3889 9.70462V3.61961Z" fill="white"/>
</svg>
