<svg width="14" height="14" viewBox="0 0 14 14" fill="none" xmlns="http://www.w3.org/2000/svg">
    <path d="M9.91683 2.3335H10.9382C11.8243 2.3335 12.5418 3.05158 12.5418 3.93898V10.9362C12.5418 11.823 11.824 12.5418 10.9382 12.5418H3.06208C2.176 12.5418 1.4585 11.8237 1.4585 10.9363V3.93912C1.4585 3.05231 2.17629 2.3335 3.06208 2.3335H4.0835V1.896C4.0835 1.77996 4.12959 1.66868 4.21164 1.58664C4.29368 1.50459 4.40496 1.4585 4.521 1.4585C4.63703 1.4585 4.74831 1.50459 4.83036 1.58664C4.9124 1.66868 4.9585 1.77996 4.9585 1.896V2.3335H9.04183V1.896C9.04183 1.77996 9.08792 1.66868 9.16997 1.58664C9.25202 1.50459 9.3633 1.4585 9.47933 1.4585C9.59536 1.4585 9.70664 1.50459 9.78869 1.58664C9.87074 1.66868 9.91683 1.77996 9.91683 1.896V2.3335ZM9.91683 3.2085V3.646C9.91683 3.76203 9.87074 3.87331 9.78869 3.95536C9.70664 4.0374 9.59536 4.0835 9.47933 4.0835C9.3633 4.0835 9.25202 4.0374 9.16997 3.95536C9.08792 3.87331 9.04183 3.76203 9.04183 3.646V3.2085H4.9585V3.646C4.9585 3.76203 4.9124 3.87331 4.83036 3.95536C4.74831 4.0374 4.63703 4.0835 4.521 4.0835C4.40496 4.0835 4.29368 4.0374 4.21164 3.95536C4.12959 3.87331 4.0835 3.76203 4.0835 3.646V3.2085H3.06208C2.96627 3.20861 2.87143 3.2276 2.78296 3.26437C2.69449 3.30115 2.61414 3.35499 2.54648 3.42282C2.47882 3.49065 2.42519 3.57115 2.38865 3.65971C2.3521 3.74828 2.33336 3.84317 2.3335 3.93898V10.9362C2.33325 11.032 2.35191 11.127 2.38841 11.2156C2.42491 11.3042 2.47853 11.3848 2.54621 11.4527C2.61389 11.5205 2.69429 11.5744 2.78281 11.6111C2.87133 11.6479 2.96623 11.6668 3.06208 11.6668H10.9382C11.0341 11.6667 11.1289 11.6477 11.2174 11.611C11.3058 11.5742 11.3862 11.5203 11.4538 11.4525C11.5215 11.3847 11.5751 11.3042 11.6117 11.2156C11.6482 11.1271 11.667 11.0322 11.6668 10.9363V3.93912C11.6671 3.84328 11.6484 3.74832 11.6119 3.6597C11.5754 3.57108 11.5218 3.49053 11.4541 3.42266C11.3864 3.35479 11.306 3.30094 11.2175 3.26419C11.129 3.22744 11.0341 3.20851 10.9382 3.2085H9.91683ZM9.771 6.271C9.88703 6.271 9.99831 6.31709 10.0804 6.39914C10.1624 6.48118 10.2085 6.59246 10.2085 6.7085C10.2085 6.82453 10.1624 6.93581 10.0804 7.01786C9.99831 7.0999 9.88703 7.146 9.771 7.146H4.22933C4.1133 7.146 4.00202 7.0999 3.91997 7.01786C3.83792 6.93581 3.79183 6.82453 3.79183 6.7085C3.79183 6.59246 3.83792 6.48118 3.91997 6.39914C4.00202 6.31709 4.1133 6.271 4.22933 6.271H9.771ZM8.021 8.4585C8.13703 8.4585 8.24831 8.50459 8.33036 8.58664C8.4124 8.66868 8.4585 8.77996 8.4585 8.896C8.4585 9.01203 8.4124 9.12331 8.33036 9.20535C8.24831 9.2874 8.13703 9.3335 8.021 9.3335H4.22933C4.1133 9.3335 4.00202 9.2874 3.91997 9.20535C3.83792 9.12331 3.79183 9.01203 3.79183 8.896C3.79183 8.77996 3.83792 8.66868 3.91997 8.58664C4.00202 8.50459 4.1133 8.4585 4.22933 8.4585H8.021Z" fill="black"/>
</svg>
