<svg t="1741675228976" class="icon" viewBox="0 0 1024 1024" version="1.1" xmlns="http://www.w3.org/2000/svg" p-id="13475" width="81" height="81"><path d="M512 693.9136c50.7904 0 93.7984-17.664 129.024-52.8896s52.8896-78.2336 52.8896-129.024-17.664-93.7984-52.8896-129.024S562.7904 330.0864 512 330.0864s-93.7984 17.664-129.024 52.8896S330.0864 461.2096 330.0864 512s17.664 93.7984 52.8896 129.024 78.2336 52.8896 129.024 52.8896zM512 870.4a349.184 349.184 0 0 1-139.776-28.2112 361.8304 361.8304 0 0 1-113.8176-76.5952 361.8304 361.8304 0 0 1-76.5952-113.8176A349.184 349.184 0 0 1 153.6 512c0-49.5616 9.4208-96.1536 28.2112-139.776a361.7792 361.7792 0 0 1 76.5952-113.8176A361.7792 361.7792 0 0 1 372.224 181.8112 349.184 349.184 0 0 1 512 153.6a349.184 349.184 0 0 1 139.776 28.2112 361.8304 361.8304 0 0 1 113.8176 76.5952c32.256 32.256 57.8048 70.1952 76.5952 113.8176A349.184 349.184 0 0 1 870.4 512a349.184 349.184 0 0 1-28.2112 139.776 361.8816 361.8816 0 0 1-76.5952 113.8176 361.8816 361.8816 0 0 1-113.8176 76.5952A349.184 349.184 0 0 1 512 870.4z m0-75.264c78.2336 0 144.9984-27.648 200.2432-82.8928 55.296-55.2448 82.8928-122.0096 82.8928-200.2432s-27.648-144.9984-82.8928-200.2432C656.9984 256.4608 590.2336 228.864 512 228.864s-144.9984 27.648-200.2432 82.8928C256.4608 367.0016 228.864 433.7664 228.864 512s27.648 144.9984 82.8928 200.2432C367.0016 767.5392 433.7664 795.136 512 795.136z" fill="#F53F3F" p-id="13476"></path></svg>