<svg width="25" height="24" viewBox="0 0 25 24" fill="none" xmlns="http://www.w3.org/2000/svg">
    <path d="M6.59975 8.35753L11.3878 4.51453C11.498 4.42601 11.631 4.37047 11.7715 4.35431C11.912 4.33815 12.0542 4.36202 12.1816 4.42317C12.3091 4.48433 12.4167 4.58027 12.492 4.69994C12.5673 4.81961 12.6073 4.95813 12.6073 5.09953V19.4065C12.6072 19.5477 12.5673 19.686 12.4921 19.8055C12.4169 19.925 12.3095 20.0209 12.1823 20.0821C12.0551 20.1433 11.9131 20.1673 11.7728 20.1514C11.6325 20.1355 11.4996 20.0804 11.3892 19.9923L6.46925 16.0653H2.75C2.55109 16.0653 2.36032 15.9863 2.21967 15.8456C2.07902 15.705 2 15.5142 2 15.3153V9.10753C2 8.90861 2.07902 8.71785 2.21967 8.5772C2.36032 8.43654 2.55109 8.35753 2.75 8.35753H6.59975ZM16.2215 16.8783C16.0789 17.0142 15.8886 17.0886 15.6916 17.0853C15.4946 17.082 15.3068 17.0014 15.1688 16.8608C15.0308 16.7203 14.9537 16.531 14.954 16.334C14.9544 16.137 15.0322 15.9481 15.1708 15.808C15.649 15.3399 16.0287 14.7808 16.2876 14.1637C16.5465 13.5466 16.6793 12.884 16.6782 12.2148C16.6805 10.9626 16.2142 9.75495 15.371 8.82928C15.3034 8.75663 15.2508 8.67129 15.2164 8.57819C15.182 8.4851 15.1665 8.3861 15.1706 8.28694C15.1747 8.18778 15.1985 8.09042 15.2406 8.00052C15.2826 7.91062 15.3421 7.82996 15.4155 7.76321C15.489 7.69646 15.575 7.64495 15.6685 7.61167C15.762 7.57839 15.8611 7.564 15.9602 7.56933C16.0593 7.57466 16.1564 7.59961 16.2458 7.64273C16.3352 7.68585 16.4151 7.74628 16.481 7.82053C17.5751 9.02225 18.1805 10.5896 18.1782 12.2148C18.1793 13.0833 18.0067 13.9432 17.6707 14.7441C17.3346 15.5449 16.8419 16.2705 16.2215 16.8783ZM19.787 20.1303C19.7186 20.202 19.6367 20.2596 19.546 20.2995C19.4552 20.3394 19.3575 20.3609 19.2584 20.3628C19.1593 20.3647 19.0607 20.347 18.9685 20.3106C18.8763 20.2742 18.7923 20.2198 18.7212 20.1507C18.6501 20.0816 18.5934 19.9991 18.5544 19.908C18.5154 19.8169 18.4949 19.7189 18.494 19.6198C18.4931 19.5207 18.5119 19.4223 18.5492 19.3305C18.5865 19.2387 18.6417 19.1552 18.7115 19.0848C20.503 17.2471 21.5039 14.7812 21.5 12.2148C21.5 9.66703 20.5303 7.27303 18.818 5.45578C18.684 5.31055 18.6128 5.11833 18.6198 4.92087C18.6267 4.72342 18.7113 4.53668 18.8551 4.40124C18.999 4.26579 19.1905 4.19258 19.388 4.1975C19.5855 4.20242 19.7731 4.28508 19.91 4.42753C21.8825 6.52003 23 9.28003 23 12.2148C23 15.211 21.8337 18.025 19.787 20.1303Z" fill="white"/>
</svg>
