<svg width="16" height="16" viewBox="0 0 16 16" fill="none" xmlns="http://www.w3.org/2000/svg">
    <path d="M13.6592 2.34249C12.1479 0.83211 10.1393 0 8.00172 0C5.86485 0 3.85604 0.83211 2.34537 2.34266C0.834159 3.85368 0.00195326 5.86289 0.00195326 8.00005C0.00157129 10.1374 0.833132 12.1462 2.34416 13.6582C3.85463 15.1677 5.86363 16 8.00021 16C10.1378 16 12.1475 15.1672 13.6592 13.6566C16.7777 10.5377 16.7782 5.46256 13.6592 2.34249ZM12.9219 12.9192C11.6073 14.2335 9.85948 14.9581 8.00024 14.9581C6.14231 14.9581 4.39486 14.2339 3.08118 12.9207C1.76747 11.6068 1.04417 9.85927 1.04446 8.00005C1.04446 6.14109 1.76811 4.39339 3.08228 3.07975C4.39625 1.76609 6.14312 1.04267 8.00172 1.04267C9.86038 1.04267 11.6076 1.76606 12.9219 3.07984C15.6342 5.79285 15.6342 10.2071 12.9219 12.9192ZM11.4587 9.96056L8.6934 8.36133V4C8.6934 3.63192 8.39479 3.33333 8.02661 3.33333C7.65872 3.33333 7.36012 3.63192 7.36012 4V8.66671C7.36012 8.914 7.66749 9.12134 7.86743 9.23605C7.92272 9.31932 8.07474 9.39469 8.16742 9.448L10.9174 11.1148C11.236 11.2987 11.5814 11.1894 11.7654 10.8707C11.9494 10.552 11.7781 10.1446 11.4587 9.96063V9.96056H11.4587Z" fill="white"/>
</svg>
