<svg width="14" height="14" viewBox="0 0 14 14" fill="none" xmlns="http://www.w3.org/2000/svg">
    <g clip-path="url(#clip0_7651_18709)">
        <path d="M7 1C3.7 1 1 3.7 1 7C1 10.3 3.7 13 7 13C10.3 13 13 10.3 13 7C13 3.7 10.3 1 7 1ZM7 12.25C4.075 12.25 1.75 9.925 1.75 7C1.75 4.075 4.075 1.75 7 1.75C9.925 1.75 12.25 4.075 12.25 7C12.25 9.925 9.925 12.25 7 12.25Z" fill="black" stroke="black" stroke-width="0.2"/>
        <path d="M3.32471 6.09961H5.57471C5.79971 6.09961 5.94971 5.94961 5.94971 5.72461C5.94971 5.49961 5.79971 5.34961 5.57471 5.34961H3.32471C3.09971 5.34961 2.94971 5.49961 2.94971 5.72461C2.94971 5.87461 3.09971 6.09961 3.32471 6.09961Z" fill="black"/>
        <path d="M3.32471 7.59961H5.57471C5.79971 7.59961 5.94971 7.44961 5.94971 7.22461C5.94971 6.99961 5.79971 6.84961 5.57471 6.84961H3.32471C3.09971 6.84961 2.94971 6.99961 2.94971 7.22461C2.94971 7.37461 3.09971 7.59961 3.32471 7.59961Z" fill="black"/>
        <path d="M5.57471 8.34961H3.32471C3.09971 8.34961 2.94971 8.49961 2.94971 8.72461C2.94971 8.94961 3.09971 9.09961 3.32471 9.09961H5.57471C5.79971 9.09961 5.94971 8.94961 5.94971 8.72461C5.94971 8.49961 5.79971 8.34961 5.57471 8.34961Z" fill="black"/>
        <path d="M11.0503 9.09961C11.0503 8.27461 10.6003 7.52461 9.85029 7.14961C10.0753 6.84961 10.3003 6.54961 10.3003 6.09961C10.3003 5.27461 9.62529 4.59961 8.80029 4.59961C7.97529 4.59961 7.30029 5.27461 7.30029 6.09961C7.30029 6.47461 7.45029 6.84961 7.75029 7.14961C7.00029 7.44961 6.55029 8.19961 6.55029 9.09961C6.55029 9.32461 6.70029 9.47461 6.92529 9.47461C7.15029 9.47461 7.30029 9.32461 7.30029 9.09961C7.30029 8.27461 7.97529 7.59961 8.80029 7.59961C9.62529 7.59961 10.3003 8.27461 10.3003 9.09961C10.3003 9.32461 10.4503 9.47461 10.6753 9.47461C10.9003 9.47461 11.0503 9.24961 11.0503 9.09961ZM8.80029 6.84961C8.35029 6.84961 8.05029 6.54961 8.05029 6.09961C8.05029 5.64961 8.35029 5.34961 8.80029 5.34961C9.25029 5.34961 9.55029 5.64961 9.55029 6.09961C9.55029 6.47461 9.25029 6.84961 8.80029 6.84961Z" fill="black"/>
    </g>
    <defs>
        <clipPath id="clip0_7651_18709">
            <rect width="14" height="14" fill="white"/>
        </clipPath>
    </defs>
</svg>
