<svg width="14" height="15" viewBox="0 0 14 15" fill="none" xmlns="http://www.w3.org/2000/svg">
    <path d="M11.8521 2.16455H2.14639C1.69521 2.16455 1.32471 2.53369 1.32471 2.98623V9.63076C1.32471 10.0819 1.69385 10.4524 2.14639 10.4524H6.58838C6.58838 10.4524 6.58975 10.4524 6.58975 10.4538V12.2462C6.58975 12.2462 6.58975 12.2476 6.58838 12.2476H2.6249C2.40068 12.2476 2.21201 12.4226 2.20518 12.6468C2.19971 12.8778 2.38564 13.0679 2.61533 13.0679H11.3749C11.5991 13.0679 11.7878 12.8929 11.7946 12.6687C11.8001 12.4376 11.6142 12.2476 11.3845 12.2476H7.41006C7.41006 12.2476 7.40869 12.2476 7.40869 12.2462V10.4511C7.40869 10.4511 7.40869 10.4497 7.41006 10.4497H11.8521C12.3032 10.4497 12.6737 10.0806 12.6737 9.62803V2.9835C12.6737 2.53369 12.3032 2.16455 11.8521 2.16455ZM11.8534 9.62803L11.8507 9.63076H2.14775L2.14502 9.62803V2.9876L2.14775 2.98486H11.8507L11.8534 2.9876V9.62803Z" fill="black"/>
    <path d="M3.85293 3.96924H3.4209C3.27051 3.96924 3.14746 4.09229 3.14746 4.24268V4.67471C3.14746 4.8251 3.27051 4.94814 3.4209 4.94814H3.85293C4.00332 4.94814 4.12637 4.8251 4.12637 4.67471V4.24268C4.12637 4.09229 4.00332 3.96924 3.85293 3.96924ZM5.09707 3.96924H4.66504C4.51465 3.96924 4.3916 4.09229 4.3916 4.24268V4.67471C4.3916 4.8251 4.51465 4.94814 4.66504 4.94814H5.09707C5.24746 4.94814 5.37051 4.8251 5.37051 4.67471V4.24268C5.37051 4.09229 5.24746 3.96924 5.09707 3.96924ZM6.34258 3.96924H5.91055C5.76016 3.96924 5.63711 4.09229 5.63711 4.24268V4.67471C5.63711 4.8251 5.76016 4.94814 5.91055 4.94814H6.34258C6.49297 4.94814 6.61602 4.8251 6.61602 4.67471V4.24268C6.61602 4.09229 6.49297 3.96924 6.34258 3.96924Z" fill="black"/>
</svg>